<svg version="1.1" id="Layer_1" xmlns="http://www.w3.org/2000/svg" xmlns:xlink="http://www.w3.org/1999/xlink" x="0px" y="0px"
	 width="100%" viewBox="0 0 1024 1024" enable-background="new 0 0 1024 1024" xml:space="preserve">
<path fill="#141228" opacity="1.000000" stroke="none" 
	d="
M701.000000,1025.000000 
	C467.333344,1025.000000 234.166672,1025.000000 1.000000,1025.000000 
	C1.000000,683.666687 1.000000,342.333344 1.000000,1.000000 
	C342.333344,1.000000 683.666687,1.000000 1025.000000,1.000000 
	C1025.000000,342.333344 1025.000000,683.666687 1025.000000,1025.000000 
	C917.166687,1025.000000 809.333313,1025.000000 701.000000,1025.000000 
M913.812317,591.837585 
	C913.812317,591.837585 913.812439,591.792664 914.519348,591.795349 
	C915.003723,590.853760 915.488098,589.912170 915.997559,589.002441 
	C915.997559,589.002441 915.965759,588.973816 916.662964,588.908264 
	C917.314453,587.859192 917.965942,586.810120 918.663940,585.719177 
	C918.663940,585.719177 918.722534,585.697144 919.407837,585.589539 
	C924.874268,576.890137 930.355652,568.199951 935.762268,559.463501 
	C936.030945,559.029297 935.649414,558.192627 935.612427,556.985962 
	C935.704468,556.625305 935.796509,556.264648 936.606628,556.028198 
	C937.527100,556.779724 938.447571,557.531250 939.290588,559.083069 
	C935.660767,577.074036 928.562622,593.689453 919.128662,609.336121 
	C897.497253,645.212952 867.202759,671.807983 830.470581,691.322998 
	C795.908691,709.685059 759.384521,723.076782 721.560181,732.860229 
	C693.695862,740.067383 665.622986,746.430908 636.884766,749.182861 
	C616.063782,751.176758 598.611877,759.678284 584.966125,775.676392 
	C577.858643,784.009094 572.396667,793.233948 569.635864,803.935608 
	C567.643616,811.657898 568.406494,812.814148 576.035583,812.779846 
	C632.513794,812.525940 688.993347,812.414490 745.468933,811.875977 
	C763.980530,811.699463 782.192322,808.444275 800.125427,803.823425 
	C823.740479,797.738525 846.256653,789.043518 867.792480,777.414307 
	C899.439575,760.325195 926.572144,737.934814 949.531982,710.437622 
	C972.601074,682.809570 989.775391,651.844727 1001.083008,617.618469 
	C1010.331909,589.623779 1016.015747,560.975708 1015.855469,531.472107 
	C1015.766296,515.046875 1014.733582,498.549377 1012.859009,482.229980 
	C1010.266724,459.662994 1003.976074,437.878265 995.350281,416.870514 
	C983.054993,386.925903 966.218018,359.705231 944.881348,335.339203 
	C926.918152,314.825714 906.772827,296.778839 883.488342,282.444702 
	C880.877075,280.837219 879.957825,279.180634 879.714233,276.184021 
	C879.028564,267.749359 878.531311,259.205231 876.715759,250.978821 
	C874.032837,238.822174 869.045898,227.570297 859.433167,219.001694 
	C855.094360,215.134277 853.364319,215.320389 848.649170,218.758743 
	C839.264771,225.602127 830.157166,233.009109 820.090881,238.686142 
	C808.069885,245.465607 796.059021,251.852737 780.635376,248.985703 
	C749.835938,243.260544 719.521179,248.122391 690.200256,258.127014 
	C661.773560,267.826508 636.383545,283.270020 612.329773,301.237640 
	C596.085999,313.371338 585.401917,328.366638 581.098389,348.273773 
	C579.431885,355.982452 576.802979,363.772125 573.065247,370.688812 
	C562.545166,390.156464 551.082703,409.112579 540.311646,428.448578 
	C537.603516,433.310120 535.286011,438.684174 534.239685,444.102783 
	C532.892090,451.081787 534.494385,451.995544 541.534058,450.253540 
	C550.577759,448.015625 559.607544,445.713867 568.691956,443.654266 
	C570.483154,443.248230 572.495300,443.816528 574.405518,443.935486 
	C574.069092,445.778656 574.139526,447.828552 573.326172,449.429413 
	C569.706604,456.553284 565.850464,463.557434 562.049255,470.588318 
	C556.797485,480.302124 554.714539,490.051727 562.510010,499.440277 
	C569.591064,507.968414 578.349609,514.488831 589.270264,516.816223 
	C613.056885,521.885620 632.960388,514.214722 647.674011,495.389618 
	C659.318176,480.491577 662.976685,463.444916 654.555237,445.261108 
	C654.327332,444.768982 654.442322,444.118073 654.397400,443.541199 
	C658.991882,447.659424 662.958557,452.079010 666.439392,456.852844 
	C681.170471,477.055481 677.556091,508.229370 658.488403,524.396606 
	C641.340515,538.936035 621.872131,541.472107 600.878967,534.548828 
	C596.349976,533.055176 591.961304,531.135986 587.017273,529.222900 
	C587.122131,531.087219 586.957214,532.438049 587.301697,533.643311 
	C593.750366,556.207581 607.084045,573.066650 628.967590,582.225647 
	C633.992981,584.328918 640.092285,585.788635 645.350464,585.055725 
	C661.537842,582.799561 672.825745,573.097412 679.938965,558.616394 
	C685.531616,547.230835 693.380859,538.018066 704.512817,531.852966 
	C717.229858,524.809998 730.494263,523.517822 744.466553,528.010864 
	C748.389404,529.272400 752.978210,529.965942 756.966248,529.257568 
	C772.932007,526.421631 788.104248,520.961243 803.420532,513.865051 
	C805.607605,512.240662 807.794739,510.616241 809.996582,508.997559 
	C809.996582,508.997559 809.996887,508.982788 810.801147,509.004211 
	C814.353149,509.171265 817.009888,508.232452 817.000000,504.000000 
	C817.000000,504.000000 816.992371,503.992859 817.791504,504.009949 
	C819.610046,503.410583 822.074158,503.363647 823.139038,502.119293 
	C828.672546,495.653320 834.389282,489.234924 839.028076,482.137207 
	C846.628296,470.508240 851.514465,457.788574 854.852783,444.081665 
	C859.140015,426.478699 859.695312,409.002869 858.223450,391.223633 
	C857.908997,387.424988 857.429199,383.640015 857.025574,379.848755 
	C857.543030,379.752197 858.060486,379.655640 858.577942,379.559113 
	C861.428345,388.552246 864.816833,397.418152 866.981628,406.573425 
	C869.262573,416.219971 871.075928,426.088196 871.846069,435.956909 
	C873.281128,454.345551 869.268921,472.175446 864.637329,489.853699 
	C864.306824,491.114960 864.850830,492.605347 864.981873,494.654999 
	C864.625244,495.428741 864.268616,496.202484 863.221069,497.096222 
	C860.451050,501.336182 855.780273,504.846405 857.838196,511.541962 
	C857.536438,512.024658 857.234680,512.507446 856.184509,513.017090 
	C855.069214,513.619019 853.331726,513.956604 852.944702,514.867859 
	C851.120850,519.161865 849.667053,523.613098 847.808899,528.635254 
	C841.912048,536.238098 836.464111,544.247131 830.026489,551.360596 
	C815.828064,567.049744 798.871094,579.309326 780.086426,588.978088 
	C775.931763,591.116516 773.899902,593.606201 774.028320,598.606384 
	C774.215454,605.889038 773.750000,613.237793 772.933777,620.487610 
	C770.462830,642.433472 764.930969,663.567261 755.276489,683.526917 
	C754.100037,685.959045 753.076904,688.465332 751.550964,691.912903 
	C756.498169,690.306641 760.302124,689.214600 764.003906,687.846313 
	C786.811218,679.415649 808.928955,669.496277 830.294189,657.830627 
	C861.481628,640.802063 889.967957,620.428467 913.377747,592.732910 
	C913.534363,592.443787 913.690918,592.154663 913.812317,591.837585 
M121.950790,745.065186 
	C121.950790,745.065186 121.935204,745.095276 122.064575,745.757812 
	C124.066559,747.474121 126.068550,749.190369 128.540741,751.311523 
	C129.347244,751.890625 130.153748,752.469727 131.088516,753.722961 
	C134.074371,755.796021 137.060226,757.869141 140.488754,760.010010 
	C140.488754,760.010010 140.931183,760.079468 141.071503,760.760986 
	C142.369507,761.519104 143.667511,762.277222 145.229889,763.436157 
	C145.438828,763.686340 145.691193,763.879822 146.138458,764.681396 
	C150.782211,767.421326 155.425980,770.161194 160.511993,772.967590 
	C160.511993,772.967590 160.950409,773.055969 161.084198,773.742065 
	C161.736755,774.439880 162.261078,775.390259 163.061554,775.796692 
	C171.748245,780.207031 180.349686,784.820435 189.239639,788.783386 
	C195.634384,791.633972 202.429718,793.585876 209.670517,796.001038 
	C210.087387,796.033813 210.504242,796.066528 211.147400,796.764404 
	C215.137115,798.111084 219.126831,799.457703 223.926056,800.873474 
	C229.050873,802.216187 234.176605,803.555420 239.300354,804.902222 
	C257.673004,809.731384 276.399689,812.732056 295.342102,812.873962 
	C346.493835,813.257263 397.650208,813.027100 448.804718,813.040283 
	C450.548798,813.040710 452.292877,813.040344 455.055634,813.040344 
	C453.554321,811.369507 452.919189,810.423218 452.067078,809.752808 
	C446.092194,805.051819 440.000031,800.497742 434.081390,795.727905 
	C418.400238,783.090515 405.764832,767.665649 395.067169,750.802795 
	C383.125580,731.979187 374.333923,711.502686 366.470825,690.679077 
	C358.142517,668.623352 350.328918,646.370911 341.810913,624.390259 
	C338.183411,615.029602 333.337646,606.141052 329.124207,596.274963 
	C329.024780,595.789246 329.048401,595.229980 328.808289,594.828369 
	C317.563232,576.016846 306.311615,557.209106 294.987671,538.445068 
	C294.335632,537.364563 293.073730,536.652039 292.164978,535.034363 
	C285.873474,522.108276 280.939423,508.799805 281.109802,493.505554 
	C282.288269,485.937622 286.416077,480.168304 292.919495,475.231567 
	C295.875122,474.387848 298.830750,473.544128 302.734497,472.884216 
	C310.865051,472.608612 319.064514,472.891968 327.106720,471.900024 
	C335.126251,470.910858 342.988068,468.643158 351.531860,467.377197 
	C358.529419,468.654785 365.526978,469.932404 372.404175,471.188019 
	C373.253937,468.438293 373.783295,466.725311 374.921295,464.839905 
	C375.746552,463.515472 376.571808,462.191010 377.631256,460.490753 
	C378.509491,462.549713 379.242554,464.268372 380.027374,466.750214 
	C378.075073,472.033539 380.757355,475.648407 384.412476,478.905701 
	C396.127716,489.345917 409.998474,495.294983 425.102386,499.334137 
	C424.218292,504.831726 426.847931,507.114044 432.323517,507.857483 
	C430.399200,516.201721 428.474915,524.546021 426.661682,532.408691 
	C469.298126,509.435028 477.820862,443.950012 442.900818,408.166809 
	C443.014130,405.638245 443.127472,403.109680 443.818573,400.412933 
	C444.206848,400.312347 444.595123,400.211761 445.205719,400.357330 
	C445.597229,400.440857 445.809479,400.274048 446.472015,399.592377 
	C447.996490,398.347778 449.796967,397.323883 450.998810,395.821228 
	C456.929626,388.405792 458.033173,379.534210 456.641968,370.711823 
	C450.177124,329.714752 422.554077,293.735474 379.920135,283.459442 
	C377.293304,282.826324 374.568298,281.502380 372.513214,279.762543 
	C348.021027,259.026794 319.038696,249.746109 287.725342,247.217209 
	C258.998108,244.897141 230.946030,249.248398 203.732559,258.687256 
	C160.179718,273.793335 123.460495,299.151825 92.635368,333.238922 
	C91.735138,334.234436 91.481049,335.814270 90.232796,337.088379 
	C89.407204,337.807556 88.457657,338.425262 87.774055,339.260651 
	C67.318184,364.258362 50.922493,391.702087 40.210518,422.175171 
	C34.905220,437.267487 31.599287,453.062653 27.154680,469.365417 
	C25.126482,482.107666 22.070072,494.787506 21.292227,507.605652 
	C19.841846,531.506470 21.050985,555.429199 25.607870,579.014832 
	C27.617346,589.415527 30.568174,599.634338 33.026520,610.761230 
	C33.510498,612.818970 33.807926,614.943115 34.512333,616.922363 
	C36.931496,623.719849 39.257488,630.567017 42.083084,637.197510 
	C43.977161,641.642029 46.656918,645.751648 49.013916,650.486633 
	C49.013916,650.486633 49.050106,650.961609 49.012184,651.775940 
	C49.069149,652.764771 48.801922,653.932495 49.233372,654.714783 
	C53.418972,662.302856 57.674694,669.853943 62.055866,677.330322 
	C62.552731,678.178162 63.943199,678.502441 64.950333,679.538574 
	C64.950333,679.538574 64.989944,680.007080 64.997551,680.738647 
	C66.911812,683.957153 68.606117,687.334534 70.790047,690.358276 
	C74.379829,695.328430 78.286964,700.069397 82.497086,704.989624 
	C82.497086,704.989624 82.934425,705.069336 82.989578,705.780640 
	C84.968132,707.876038 86.946693,709.971497 88.986000,712.518066 
	C88.986000,712.518066 89.062935,712.966736 89.048431,713.689209 
	C91.721001,716.430725 94.393578,719.172241 97.062813,721.971313 
	C97.062813,721.971313 97.105461,721.932495 97.068581,722.655701 
	C102.397316,727.749268 107.726044,732.842834 113.038490,737.999207 
	C113.038490,737.999207 113.076889,737.945190 113.124802,738.637695 
	C115.068695,740.104675 117.012589,741.571655 119.456566,743.296936 
	C119.934761,743.594116 120.412956,743.891357 121.161354,744.556213 
	C121.374023,744.784241 121.628586,744.946533 121.950790,745.065186 
z"/>
<path fill="#216AA0" opacity="1.000000" stroke="none" 
	d="
M856.932983,512.990173 
	C857.234680,512.507446 857.536438,512.024658 858.139282,511.036743 
	C860.264282,506.013092 862.088135,501.494659 863.911987,496.976227 
	C864.268616,496.202484 864.625244,495.428741 865.219849,494.053101 
	C880.756836,448.311432 874.837280,405.290283 852.632874,363.897980 
	C852.286194,365.006958 852.313293,366.091095 852.564880,367.120300 
	C857.311707,386.538635 858.452332,406.172333 856.024536,426.002716 
	C853.713806,444.877502 848.657349,462.960480 837.776733,478.727448 
	C831.604797,487.671112 823.968933,495.604492 816.992371,503.992859 
	C816.992371,503.992859 817.000000,504.000000 816.657837,504.040619 
	C814.209412,505.715088 812.103149,507.348938 809.996887,508.982788 
	C809.996887,508.982788 809.996582,508.997559 809.649292,509.040283 
	C807.078186,510.635223 804.854492,512.187378 802.630737,513.739563 
	C788.104248,520.961243 772.932007,526.421631 756.966248,529.257568 
	C752.978210,529.965942 748.389404,529.272400 744.466553,528.010864 
	C730.494263,523.517822 717.229858,524.809998 704.512817,531.852966 
	C693.380859,538.018066 685.531616,547.230835 679.938965,558.616394 
	C672.825745,573.097412 661.537842,582.799561 645.350464,585.055725 
	C640.092285,585.788635 633.992981,584.328918 628.967590,582.225647 
	C607.084045,573.066650 593.750366,556.207581 587.301697,533.643311 
	C586.957214,532.438049 587.122131,531.087219 587.017273,529.222900 
	C591.961304,531.135986 596.349976,533.055176 600.878967,534.548828 
	C621.872131,541.472107 641.340515,538.936035 658.488403,524.396606 
	C677.556091,508.229370 681.170471,477.055481 666.439392,456.852844 
	C662.958557,452.079010 658.991882,447.659424 654.397400,443.541199 
	C654.442322,444.118073 654.327332,444.768982 654.555237,445.261108 
	C662.976685,463.444916 659.318176,480.491577 647.674011,495.389618 
	C632.960388,514.214722 613.056885,521.885620 589.270264,516.816223 
	C578.349609,514.488831 569.591064,507.968414 562.510010,499.440277 
	C554.714539,490.051727 556.797485,480.302124 562.049255,470.588318 
	C565.850464,463.557434 569.706604,456.553284 573.326172,449.429413 
	C574.139526,447.828552 574.069092,445.778656 574.405518,443.935486 
	C572.495300,443.816528 570.483154,443.248230 568.691956,443.654266 
	C559.607544,445.713867 550.577759,448.015625 541.534058,450.253540 
	C534.494385,451.995544 532.892090,451.081787 534.239685,444.102783 
	C535.286011,438.684174 537.603516,433.310120 540.311646,428.448578 
	C551.082703,409.112579 562.545166,390.156464 573.065247,370.688812 
	C576.802979,363.772125 579.431885,355.982452 581.098389,348.273773 
	C585.401917,328.366638 596.085999,313.371338 612.329773,301.237640 
	C636.383545,283.270020 661.773560,267.826508 690.200256,258.127014 
	C719.521179,248.122391 749.835938,243.260544 780.635376,248.985703 
	C796.059021,251.852737 808.069885,245.465607 820.090881,238.686142 
	C830.157166,233.009109 839.264771,225.602127 848.649170,218.758743 
	C853.364319,215.320389 855.094360,215.134277 859.433167,219.001694 
	C869.045898,227.570297 874.032837,238.822174 876.715759,250.978821 
	C878.531311,259.205231 879.028564,267.749359 879.714233,276.184021 
	C879.957825,279.180634 880.877075,280.837219 883.488342,282.444702 
	C906.772827,296.778839 926.918152,314.825714 944.881348,335.339203 
	C966.218018,359.705231 983.054993,386.925903 995.350281,416.870514 
	C1003.976074,437.878265 1010.266724,459.662994 1012.859009,482.229980 
	C1014.733582,498.549377 1015.766296,515.046875 1015.855469,531.472107 
	C1016.015747,560.975708 1010.331909,589.623779 1001.083008,617.618469 
	C989.775391,651.844727 972.601074,682.809570 949.531982,710.437622 
	C926.572144,737.934814 899.439575,760.325195 867.792480,777.414307 
	C846.256653,789.043518 823.740479,797.738525 800.125427,803.823425 
	C782.192322,808.444275 763.980530,811.699463 745.468933,811.875977 
	C688.993347,812.414490 632.513794,812.525940 576.035583,812.779846 
	C568.406494,812.814148 567.643616,811.657898 569.635864,803.935608 
	C572.396667,793.233948 577.858643,784.009094 584.966125,775.676392 
	C598.611877,759.678284 616.063782,751.176758 636.884766,749.182861 
	C665.622986,746.430908 693.695862,740.067383 721.560181,732.860229 
	C759.384521,723.076782 795.908691,709.685059 830.470581,691.322998 
	C867.202759,671.807983 897.497253,645.212952 919.128662,609.336121 
	C928.562622,593.689453 935.660767,577.074036 939.537354,558.374634 
	C941.199768,551.145935 942.615356,544.625671 944.031006,538.105347 
	C943.578979,537.962280 943.126953,537.819214 942.674927,537.676208 
	C940.412781,543.752136 938.150696,549.828064 935.888550,555.903992 
	C935.796509,556.264648 935.704468,556.625305 935.313599,557.452209 
	C931.894897,563.189514 928.761169,568.452393 925.659912,573.734314 
	C923.325989,577.709351 921.033508,581.708679 918.722534,585.697144 
	C918.722534,585.697144 918.663940,585.719177 918.352783,585.844727 
	C917.349609,586.971436 916.657715,587.972595 915.965759,588.973816 
	C915.965759,588.973816 915.997559,589.002441 915.698608,589.113098 
	C914.870605,590.080078 914.341553,590.936401 913.812439,591.792664 
	C913.812439,591.792664 913.812317,591.837585 913.604004,591.962708 
	C913.241699,592.382080 913.087646,592.676331 912.933533,592.970581 
	C889.967957,620.428467 861.481628,640.802063 830.294189,657.830627 
	C808.928955,669.496277 786.811218,679.415649 764.003906,687.846313 
	C760.302124,689.214600 756.498169,690.306641 751.550964,691.912903 
	C753.076904,688.465332 754.100037,685.959045 755.276489,683.526917 
	C764.930969,663.567261 770.462830,642.433472 772.933777,620.487610 
	C773.750000,613.237793 774.215454,605.889038 774.028320,598.606384 
	C773.899902,593.606201 775.931763,591.116516 780.086426,588.978088 
	C798.871094,579.309326 815.828064,567.049744 830.026489,551.360596 
	C836.464111,544.247131 841.912048,536.238098 848.225464,528.146851 
	C851.405701,522.769043 854.169373,517.879578 856.932983,512.990173 
M664.057373,424.996368 
	C664.057373,424.996368 664.072571,424.932373 663.878845,424.360931 
	C663.233826,424.008331 662.588745,423.655731 661.448486,422.895691 
	C660.580811,422.279236 659.713135,421.662811 658.538635,420.498169 
	C657.432922,419.877106 656.327271,419.256042 655.096375,418.311035 
	C655.096375,418.311035 654.892151,418.030029 654.621399,417.524323 
	C654.114563,417.270752 653.607666,417.017181 652.850342,416.411102 
	C652.662231,416.184052 652.431702,416.014618 651.949219,415.285156 
	C650.956665,414.564178 649.964111,413.843170 648.960693,413.050720 
	C648.960693,413.050720 648.890930,413.031494 648.665100,412.412659 
	C645.873779,409.493988 643.082458,406.575348 640.291199,403.656677 
	C639.868347,403.935120 639.445496,404.213562 639.022705,404.492004 
	C641.257080,408.384247 643.491516,412.276459 645.781677,416.143311 
	C645.781677,416.143311 645.790894,416.203888 645.883118,416.844299 
	C646.518677,417.669189 647.154236,418.494080 647.943604,419.986633 
	C654.610413,431.782227 664.127136,441.085236 675.097168,448.592834 
	C681.371033,452.886475 688.835632,455.662140 696.095703,458.155914 
	C698.240234,458.892548 703.157043,456.981232 703.880188,455.137115 
	C704.913513,452.501831 704.041992,448.357361 702.509888,445.710754 
	C701.198853,443.446198 697.813660,442.382385 695.010986,440.353607 
	C694.684448,440.202667 694.357971,440.051727 693.603882,439.699066 
	C693.603882,439.699066 693.151306,439.562286 692.853088,438.999298 
	C691.240234,438.325867 689.627380,437.652435 687.489807,436.842621 
	C687.131836,436.797363 686.773804,436.752136 686.068665,436.139313 
	C684.693054,435.529602 683.317444,434.919861 681.353149,433.942047 
	C680.041687,433.530914 678.730225,433.119812 677.055115,432.142609 
	C676.066711,431.694275 675.078308,431.245941 673.707275,430.546204 
	C673.448242,430.383606 673.204590,430.200500 672.677917,429.409637 
	C671.108887,428.659607 669.539917,427.909576 667.484070,426.794739 
	C666.752502,426.468262 666.020935,426.141815 664.979736,425.386169 
	C664.667725,425.235077 664.355713,425.083954 664.057373,424.996368 
M612.616699,393.621490 
	C613.145142,393.218506 613.709961,392.855042 614.196655,392.406738 
	C624.020752,383.357758 634.890076,378.749634 648.770447,381.676086 
	C660.024231,384.048798 669.183655,380.029022 675.245422,369.469849 
	C679.033447,362.871429 683.840637,356.860199 688.141235,350.551880 
	C688.908569,349.426361 689.434753,348.136444 690.314331,346.461487 
	C679.197205,344.844482 668.860657,343.470062 658.570740,341.806854 
	C648.915771,340.246216 640.552734,343.081390 634.010559,349.876923 
	C622.705261,361.620117 615.162292,375.859131 608.220093,391.082336 
	C606.416321,395.355774 604.612610,399.629211 602.808838,403.902649 
	C603.309387,404.121979 603.809937,404.341278 604.310486,404.560608 
	C606.931335,401.072784 609.552185,397.584991 612.616699,393.621490 
M848.613647,233.150070 
	C848.036804,233.749588 847.386902,234.294632 846.893677,234.956436 
	C829.402649,258.427185 806.114502,273.698761 778.739075,283.206787 
	C776.646423,283.933655 774.591736,284.769806 772.519409,285.555145 
	C772.501404,285.972504 772.483459,286.389862 772.465454,286.807251 
	C791.718262,286.690155 807.555603,293.777008 819.689636,308.530701 
	C831.595825,323.007294 839.045593,338.768890 832.908508,359.033600 
	C834.470215,357.800385 835.324890,357.318024 835.930115,356.619476 
	C852.487366,337.507141 865.535339,316.461792 870.541138,291.297760 
	C873.705139,275.392426 872.826233,259.691376 864.424927,245.352280 
	C861.009216,239.522354 857.486084,232.992889 848.613647,233.150070 
M760.771973,784.797119 
	C772.868042,794.047729 797.424805,787.917297 804.774902,770.958374 
	C809.061707,761.067505 802.466919,748.607727 791.953979,747.132874 
	C778.451294,745.238647 767.354431,749.759827 759.081238,760.669373 
	C753.362549,768.210571 753.880127,777.415161 760.771973,784.797119 
M995.105957,546.820923 
	C994.641113,544.714417 994.363098,542.544800 993.677368,540.512817 
	C991.360596,533.647705 987.273376,528.315918 979.711975,527.090027 
	C971.765503,525.801636 965.999695,529.516235 961.466125,535.868530 
	C955.624023,544.054382 954.883484,553.288635 956.313721,562.639099 
	C957.471497,570.208252 961.285950,576.811279 969.372192,578.768555 
	C977.666687,580.776062 984.225830,577.472046 989.192322,570.460388 
	C994.080872,563.558838 995.477051,555.918396 995.105957,546.820923 
M924.910706,655.611145 
	C924.911499,656.776733 924.895142,657.942688 924.915710,659.107910 
	C925.184204,674.291504 938.803101,681.920959 951.775330,674.157898 
	C962.740234,667.596008 968.911499,652.110474 965.427429,639.900452 
	C962.131348,628.349304 951.668762,623.649109 941.215637,629.427002 
	C931.388428,634.858826 925.839172,643.355896 924.910706,655.611145 
M888.625244,722.036499 
	C889.914795,719.352234 891.612793,716.785461 892.424805,713.963745 
	C896.436462,700.022827 887.297852,689.237976 873.209839,691.068665 
	C862.122009,692.509460 849.578369,703.961487 846.959229,715.034851 
	C843.858154,728.145996 851.894592,737.403931 865.328064,736.182861 
	C875.099915,735.294617 882.337158,730.118042 888.625244,722.036499 
M970.314209,454.164764 
	C978.264832,453.495880 982.937195,449.734680 985.041199,442.309662 
	C988.487366,430.148102 978.531738,410.779968 966.612976,406.458710 
	C956.519043,402.799042 946.401428,408.047058 944.318665,418.323669 
	C943.669067,421.529327 943.720215,424.973297 944.015320,428.257416 
	C945.279114,442.323730 957.125305,455.332336 970.314209,454.164764 
M889.150146,487.788788 
	C888.066284,493.082581 886.439087,498.335815 886.039856,503.680756 
	C885.570740,509.961395 888.543701,515.311646 894.298828,517.906921 
	C900.212524,520.573730 906.566162,519.979553 911.782043,515.871460 
	C919.604126,509.710602 923.319397,501.248627 922.676758,491.369812 
	C921.771179,477.450745 909.994080,470.375122 899.076599,477.255798 
	C895.306641,479.631836 892.656067,483.783966 889.150146,487.788788 
M896.865723,333.037445 
	C889.259644,336.067688 885.815369,342.153534 887.255676,350.017731 
	C889.487549,362.204163 902.713257,372.149017 915.075806,370.936707 
	C922.326294,370.225677 927.881226,364.108765 927.894287,356.821533 
	C927.919067,342.956879 912.242554,330.557465 896.865723,333.037445 
M842.848328,585.329773 
	C848.096252,592.669678 854.748657,594.834900 862.824097,591.831238 
	C872.137634,588.367126 879.065430,578.274231 878.994629,568.077942 
	C878.891113,553.169800 866.336548,549.783020 856.346741,554.653870 
	C847.573303,558.931580 837.680420,571.424683 842.848328,585.329773 
M669.708313,404.827087 
	C679.651794,409.384155 689.839783,410.824371 700.125183,406.302643 
	C709.132263,402.342865 715.626770,395.969330 716.918091,385.672455 
	C717.653992,379.803864 714.218628,376.155609 708.474731,375.790405 
	C701.854309,375.369507 697.600403,379.625519 693.427734,383.526367 
	C685.514343,390.924133 676.882446,396.884613 666.323242,399.765167 
	C665.307556,400.042236 664.347351,400.522949 662.401733,401.285065 
	C665.202515,402.665466 667.102295,403.601807 669.708313,404.827087 
M795.400146,645.574768 
	C809.147339,649.073608 820.397888,635.040710 819.877258,622.949158 
	C819.445557,612.921387 810.892334,607.595642 801.585266,611.326660 
	C794.819275,614.038940 790.487610,619.228271 788.355225,625.990295 
	C785.514099,634.999878 787.903076,641.665527 795.400146,645.574768 
M792.844116,397.688385 
	C799.838867,404.927551 809.876709,403.637573 814.059387,394.659760 
	C817.604736,387.049988 816.840576,379.431091 812.219177,372.427032 
	C809.260193,367.942261 805.167480,364.547028 799.447083,365.540680 
	C793.329102,366.603333 789.314575,370.743774 788.309143,376.840851 
	C787.133301,383.971558 787.168701,391.129150 792.844116,397.688385 
M817.935852,461.949036 
	C817.587952,457.672150 818.038147,453.122894 816.694458,449.185852 
	C814.931396,444.019775 811.171448,440.022552 804.988098,439.831970 
	C799.030212,439.648346 795.412109,443.063110 793.090881,448.102478 
	C790.308228,454.143677 790.137085,460.414398 792.562073,466.544067 
	C794.578369,471.640564 798.266479,475.466217 804.039612,475.570374 
	C809.145325,475.662506 813.383301,473.260468 815.718140,468.407715 
	C816.577942,466.620544 817.101562,464.671600 817.935852,461.949036 
M762.199524,419.735229 
	C754.369019,409.811249 736.404419,408.183289 726.799133,416.527161 
	C721.458984,421.165985 721.711426,426.681488 727.838379,430.308777 
	C736.958618,435.708069 746.688660,436.414062 756.495300,432.411469 
	C762.123169,430.114471 763.671204,426.508820 762.199524,419.735229 
M744.107727,327.464600 
	C744.574646,326.583801 745.123718,325.736267 745.495728,324.817017 
	C749.028687,316.084656 744.187561,309.178497 734.751465,309.929138 
	C725.856018,310.636810 719.814087,316.096283 715.551331,323.395477 
	C713.331238,327.196930 712.396057,331.960846 715.711182,335.596527 
	C718.791443,338.974609 723.133667,339.299286 727.725098,338.326752 
	C734.436646,336.905090 739.555115,333.313446 744.107727,327.464600 
M675.146912,303.643890 
	C676.949463,303.354767 678.778076,303.175720 680.549805,302.756500 
	C686.525635,301.342468 690.927368,296.569427 690.992493,291.555176 
	C691.050232,287.106537 687.576355,282.430023 682.997192,281.306824 
	C676.608337,279.739716 670.355347,280.455292 664.827515,284.075714 
	C661.165466,286.474121 658.153625,289.634247 658.962891,294.748322 
	C659.742920,299.677551 663.313538,301.542816 667.513184,302.627869 
	C669.729431,303.200500 672.044617,303.390350 675.146912,303.643890 
M738.345276,261.871735 
	C731.581421,259.803711 725.288147,261.616913 719.973572,265.487152 
	C717.546509,267.254608 715.364746,271.275818 715.536377,274.126404 
	C715.691223,276.697998 718.723694,280.109161 721.335938,281.322296 
	C728.074890,284.451843 734.985718,283.511871 741.159668,279.218567 
	C748.263916,274.278320 748.282166,264.620850 738.345276,261.871735 
M638.078247,317.400574 
	C637.648010,310.836334 635.634033,308.904358 629.166992,308.851898 
	C622.437500,308.797333 613.207703,315.552185 611.315613,321.916473 
	C609.597900,327.694183 611.905762,332.152222 617.305542,332.672028 
	C626.801392,333.586212 636.445801,328.004028 638.078247,317.400574 
M745.460571,468.730011 
	C744.325500,468.506836 743.196899,468.138031 742.054199,468.087585 
	C738.521851,467.931702 734.892700,467.764252 732.885742,471.562683 
	C730.836731,475.440857 731.853577,479.187958 734.310547,482.308289 
	C738.621704,487.783386 744.696655,490.183197 751.483337,489.609406 
	C758.639160,489.004395 761.414124,481.887878 756.517212,476.467926 
	C753.727966,473.380707 749.708008,471.405487 745.460571,468.730011 
M749.355530,375.946930 
	C750.849792,373.981903 752.720154,372.197510 753.767334,370.017731 
	C756.810669,363.682495 753.183899,358.476837 746.192627,359.023346 
	C740.783691,359.446136 736.379456,362.274597 734.543823,367.158875 
	C733.361389,370.305145 733.234192,374.782410 734.623169,377.723816 
	C736.351746,381.384216 740.646301,380.317200 744.019897,379.022491 
	C745.697754,378.378601 747.214966,377.316406 749.355530,375.946930 
z"/>
<path fill="#691A27" opacity="1.000000" stroke="none" 
	d="
M49.050110,650.961609 
	C49.050106,650.961609 49.013916,650.486633 49.008057,649.860535 
	C48.945793,648.575623 49.037956,647.859985 48.810951,647.266418 
	C44.761673,636.678772 40.733677,626.081970 36.541325,615.550720 
	C35.740868,613.539978 34.259071,611.800415 33.091621,609.935730 
	C30.568174,599.634338 27.617346,589.415527 25.607870,579.014832 
	C21.050985,555.429199 19.841846,531.506470 21.292227,507.605652 
	C22.070072,494.787506 25.126482,482.107666 27.555630,469.128906 
	C39.446915,481.380493 50.600353,494.199829 62.491737,506.293549 
	C96.051430,540.424316 132.609924,570.689697 176.802307,590.283569 
	C207.764114,604.011414 240.179901,611.125183 274.306824,609.266357 
	C293.270294,608.233398 311.322083,603.451721 329.045502,597.037964 
	C333.337646,606.141052 338.183411,615.029602 341.810913,624.390259 
	C350.328918,646.370911 358.142517,668.623352 366.470825,690.679077 
	C374.333923,711.502686 383.125580,731.979187 395.067169,750.802795 
	C405.764832,767.665649 418.400238,783.090515 434.081390,795.727905 
	C440.000031,800.497742 446.092194,805.051819 452.067078,809.752808 
	C452.919189,810.423218 453.554321,811.369507 455.055634,813.040344 
	C452.292877,813.040344 450.548798,813.040710 448.804718,813.040283 
	C397.650208,813.027100 346.493835,813.257263 295.342102,812.873962 
	C276.399689,812.732056 257.673004,809.731384 239.300354,804.902222 
	C234.176605,803.555420 229.050873,802.216187 223.406616,800.521118 
	C218.898483,798.812317 214.909805,797.455811 210.921112,796.099304 
	C210.504242,796.066528 210.087387,796.033813 209.287903,795.615967 
	C208.391617,794.615540 208.001282,793.702759 207.345261,793.430725 
	C200.638718,790.649231 193.824707,788.118286 187.181061,785.197937 
	C184.283417,783.924255 181.797119,781.745178 178.968979,780.275635 
	C174.935547,778.179810 170.804642,776.252502 166.623093,774.469727 
	C164.853027,773.715027 162.848419,773.510559 160.950409,773.055969 
	C160.950409,773.055969 160.511993,772.967590 160.200500,772.611450 
	C155.254990,769.509094 150.620987,766.762878 145.986969,764.016724 
	C145.691193,763.879822 145.438828,763.686340 145.056213,762.880249 
	C143.565414,761.575989 142.248306,760.827759 140.931183,760.079468 
	C140.931183,760.079468 140.488754,760.010010 140.202972,759.641113 
	C136.931519,757.197754 133.945877,755.123291 130.960236,753.048828 
	C130.153748,752.469727 129.347244,751.890625 128.242172,750.777832 
	C125.940796,748.527893 123.937988,746.811584 121.935196,745.095276 
	C121.935204,745.095276 121.950790,745.065186 121.827911,744.845093 
	C121.495293,744.364807 121.223991,744.219299 120.891144,744.188538 
	C120.412956,743.891357 119.934761,743.594116 119.174667,742.819641 
	C116.954155,740.876587 115.015533,739.410889 113.076904,737.945190 
	C113.076889,737.945190 113.038490,737.999207 112.988831,737.629883 
	C107.661270,732.151245 102.383369,727.041870 97.105469,721.932495 
	C97.105461,721.932495 97.062813,721.971313 96.996323,721.600220 
	C94.307526,718.474976 91.685226,715.720886 89.062927,712.966736 
	C89.062935,712.966736 88.986000,712.518066 88.937485,711.940918 
	C86.904137,709.265625 84.919289,707.167480 82.934433,705.069336 
	C82.934425,705.069336 82.497086,704.989624 82.211212,704.599121 
	C78.850174,699.222656 75.947426,694.118530 72.640121,689.291565 
	C70.382439,685.996399 67.559921,683.088257 64.989944,680.007080 
	C64.989944,680.007080 64.950333,679.538574 64.951019,678.914124 
	C60.985039,670.127441 57.110455,661.917786 52.957870,653.851257 
	C52.293007,652.559753 50.383976,651.908752 49.050110,650.961609 
z"/>
<path fill="#A9404E" opacity="1.000000" stroke="none" 
	d="
M280.655945,494.181183 
	C280.939423,508.799805 285.873474,522.108276 291.732605,535.527588 
	C276.737976,533.577087 263.097168,528.391174 249.940445,521.880859 
	C224.796768,509.439087 204.025589,491.381439 185.054993,471.036072 
	C152.762650,436.403717 125.989197,397.742859 101.943275,357.101715 
	C98.072258,350.559143 94.588470,343.787415 90.925690,337.121643 
	C91.481049,335.814270 91.735138,334.234436 92.635368,333.238922 
	C123.460495,299.151825 160.179718,273.793335 203.732559,258.687256 
	C230.946030,249.248398 258.998108,244.897141 287.725342,247.217209 
	C319.038696,249.746109 348.021027,259.026794 372.513214,279.762543 
	C374.568298,281.502380 377.293304,282.826324 379.920135,283.459442 
	C422.554077,293.735474 450.177124,329.714752 456.641968,370.711823 
	C458.033173,379.534210 456.929626,388.405792 450.998810,395.821228 
	C449.796967,397.323883 447.996490,398.347778 445.933716,399.757080 
	C445.395386,399.921783 444.983398,400.111176 444.983398,400.111176 
	C444.595123,400.211761 444.206848,400.312347 443.131775,400.335449 
	C434.394409,396.415009 426.040527,393.089722 418.371185,388.596191 
	C409.089447,383.157837 400.471222,376.598206 391.375732,370.823212 
	C389.030792,369.334290 388.623932,368.181000 388.735229,365.392731 
	C389.103485,356.168152 389.888184,346.730255 388.425934,337.712646 
	C385.754822,321.240540 378.588867,306.396576 368.123779,293.273651 
	C367.519836,292.516296 366.710052,291.923096 365.996063,291.253540 
	C370.358032,303.303406 374.949829,314.814941 375.419495,327.775970 
	C375.883057,340.568573 374.000549,352.461426 367.301636,363.886719 
	C364.661774,349.220490 356.970306,337.539490 347.333923,327.075775 
	C337.642242,316.552032 325.433350,309.880676 311.825195,305.829681 
	C298.080719,301.738129 284.090881,300.864929 270.037537,304.050873 
	C245.470779,309.620178 226.332413,322.623993 214.067291,345.393250 
	C225.743744,344.891876 237.561905,341.077118 248.813690,350.428589 
	C245.675446,351.875702 243.464645,353.246826 241.058533,353.933228 
	C235.636322,355.480103 230.050323,356.463104 224.649887,358.074158 
	C204.979889,363.942230 191.624146,376.556366 184.862122,395.999451 
	C184.383911,397.374451 184.372101,398.911682 183.986725,401.375061 
	C186.713226,400.119659 188.540115,399.640869 189.920883,398.580902 
	C196.364594,393.634247 202.588409,388.398590 209.077621,383.514404 
	C215.268188,378.854980 221.689423,374.501984 228.003342,370.005798 
	C227.997437,369.997284 227.981644,369.981293 228.011292,370.351868 
	C227.792633,371.497681 227.709259,372.384277 227.271988,373.031952 
	C215.137283,391.005188 215.560730,410.148712 222.372070,429.659119 
	C228.715118,447.828217 239.437363,463.330353 253.314453,476.518158 
	C261.250153,484.059662 269.966919,490.736450 280.655945,494.181183 
z"/>
<path fill="#FDFDFD" opacity="1.000000" stroke="none" 
	d="
M90.579239,337.105011 
	C94.588470,343.787415 98.072258,350.559143 101.943275,357.101715 
	C125.989197,397.742859 152.762650,436.403717 185.054993,471.036072 
	C204.025589,491.381439 224.796768,509.439087 249.940445,521.880859 
	C263.097168,528.391174 276.737976,533.577087 291.697937,535.894531 
	C293.073730,536.652039 294.335632,537.364563 294.987671,538.445068 
	C306.311615,557.209106 317.563232,576.016846 328.808289,594.828369 
	C329.048401,595.229980 329.024780,595.789246 329.084839,596.656494 
	C311.322083,603.451721 293.270294,608.233398 274.306824,609.266357 
	C240.179901,611.125183 207.764114,604.011414 176.802307,590.283569 
	C132.609924,570.689697 96.051430,540.424316 62.491737,506.293549 
	C50.600353,494.199829 39.446915,481.380493 27.672672,468.716125 
	C31.599287,453.062653 34.905220,437.267487 40.210518,422.175171 
	C50.922493,391.702087 67.318184,364.258362 87.774055,339.260651 
	C88.457657,338.425262 89.407204,337.807556 90.579239,337.105011 
z"/>
<path fill="#6A1B28" opacity="1.000000" stroke="none" 
	d="
M228.009247,370.014282 
	C221.689423,374.501984 215.268188,378.854980 209.077621,383.514404 
	C202.588409,388.398590 196.364594,393.634247 189.920883,398.580902 
	C188.540115,399.640869 186.713226,400.119659 183.986725,401.375061 
	C184.372101,398.911682 184.383911,397.374451 184.862122,395.999451 
	C191.624146,376.556366 204.979889,363.942230 224.649887,358.074158 
	C230.050323,356.463104 235.636322,355.480103 241.058533,353.933228 
	C243.464645,353.246826 245.675446,351.875702 248.813690,350.428589 
	C237.561905,341.077118 225.743744,344.891876 214.067291,345.393250 
	C226.332413,322.623993 245.470779,309.620178 270.037537,304.050873 
	C284.090881,300.864929 298.080719,301.738129 311.825195,305.829681 
	C325.433350,309.880676 337.642242,316.552032 347.333923,327.075775 
	C356.970306,337.539490 364.661774,349.220490 367.301636,363.886719 
	C374.000549,352.461426 375.883057,340.568573 375.419495,327.775970 
	C374.949829,314.814941 370.358032,303.303406 365.996063,291.253540 
	C366.710052,291.923096 367.519836,292.516296 368.123779,293.273651 
	C378.588867,306.396576 385.754822,321.240540 388.425934,337.712646 
	C389.888184,346.730255 389.103485,356.168152 388.735229,365.392731 
	C388.623932,368.181000 389.030792,369.334290 391.375732,370.823212 
	C400.471222,376.598206 409.089447,383.157837 418.371185,388.596191 
	C426.040527,393.089722 434.394409,396.415009 442.842896,400.419556 
	C443.127472,403.109680 443.014130,405.638245 442.597961,408.681305 
	C437.303619,413.675934 431.287170,414.364441 425.016235,413.588928 
	C415.108490,412.363708 406.788147,407.638031 399.405975,401.188507 
	C393.945221,396.417542 388.692474,391.408508 383.078308,386.259064 
	C382.953003,387.144806 382.719635,387.652679 382.856842,388.023438 
	C383.429626,389.571167 384.073578,391.096161 384.763367,392.596436 
	C393.021851,410.558777 397.673492,429.470978 399.323120,449.066833 
	C397.788818,448.272247 396.571808,447.538605 395.423523,446.709869 
	C392.305939,444.459717 389.217407,442.169281 386.060455,439.538391 
	C378.179230,425.413788 370.354889,411.645660 361.913300,396.791382 
	C361.372131,405.683594 361.600586,413.051819 360.352661,420.160858 
	C357.603394,435.821991 354.109192,451.352295 350.919037,466.936035 
	C342.988068,468.643158 335.126251,470.910858 327.106720,471.900024 
	C319.064514,472.891968 310.865051,472.608612 302.370544,472.469330 
	C307.325500,466.360504 306.895264,459.421112 305.308105,452.781403 
	C301.477142,436.755402 293.219879,422.613892 284.970917,408.587860 
	C278.066864,396.848694 270.691986,385.363831 260.523224,376.023438 
	C252.562073,368.710876 243.417496,368.229218 237.731262,376.173767 
	C234.017029,381.363129 231.112274,387.935944 230.264465,394.215729 
	C228.083145,410.372742 232.448135,425.395813 240.644287,439.506104 
	C252.294052,459.562073 268.901520,472.163574 292.160553,475.384918 
	C286.416077,480.168304 282.288269,485.937622 280.882874,493.843384 
	C269.966919,490.736450 261.250153,484.059662 253.314453,476.518158 
	C239.437363,463.330353 228.715118,447.828217 222.372070,429.659119 
	C215.560730,410.148712 215.137283,391.005188 227.271988,373.031952 
	C227.709259,372.384277 227.792633,371.497681 228.233093,370.366394 
	C228.678055,369.905121 228.930817,369.799927 229.183594,369.694702 
	C229.112930,369.577637 229.042252,369.460602 228.971558,369.343536 
	C228.650787,369.567108 228.330017,369.790710 228.009247,370.014282 
M281.671265,357.889862 
	C283.478790,360.277374 285.228790,362.711090 287.104156,365.044067 
	C293.874268,373.466003 305.413879,375.888885 315.009491,370.952698 
	C326.238434,365.176331 330.292145,351.166595 323.768005,340.683167 
	C316.507324,329.016235 301.644348,325.836304 291.013123,335.104614 
	C282.766144,342.294281 274.132141,345.873718 263.450562,345.171509 
	C263.305817,345.162018 263.132080,345.593140 263.560089,344.990814 
	C269.446808,349.121521 275.317749,353.241119 281.671265,357.889862 
z"/>
<path fill="#FCFBFB" opacity="1.000000" stroke="none" 
	d="
M399.671753,449.084442 
	C397.673492,429.470978 393.021851,410.558777 384.763367,392.596436 
	C384.073578,391.096161 383.429626,389.571167 382.856842,388.023438 
	C382.719635,387.652679 382.953003,387.144806 383.078308,386.259064 
	C388.692474,391.408508 393.945221,396.417542 399.405975,401.188507 
	C406.788147,407.638031 415.108490,412.363708 425.016235,413.588928 
	C431.287170,414.364441 437.303619,413.675934 442.614075,409.059326 
	C477.820862,443.950012 469.298126,509.435028 426.661682,532.408691 
	C428.474915,524.546021 430.399200,516.201721 432.348175,507.088745 
	C430.947784,500.237274 430.203156,493.889069 427.955444,488.127258 
	C423.325958,476.259796 414.262909,467.523926 405.574341,458.548981 
	C403.045868,455.937164 401.608978,452.268616 399.671753,449.084442 
z"/>
<path fill="#A93F4E" opacity="1.000000" stroke="none" 
	d="
M292.540039,475.308228 
	C268.901520,472.163574 252.294052,459.562073 240.644287,439.506104 
	C232.448135,425.395813 228.083145,410.372742 230.264465,394.215729 
	C231.112274,387.935944 234.017029,381.363129 237.731262,376.173767 
	C243.417496,368.229218 252.562073,368.710876 260.523224,376.023438 
	C270.691986,385.363831 278.066864,396.848694 284.970917,408.587860 
	C293.219879,422.613892 301.477142,436.755402 305.308105,452.781403 
	C306.895264,459.421112 307.325500,466.360504 301.896484,472.377441 
	C298.830750,473.544128 295.875122,474.387848 292.540039,475.308228 
z"/>
<path fill="#F9F8F8" opacity="1.000000" stroke="none" 
	d="
M351.225464,467.156616 
	C354.109192,451.352295 357.603394,435.821991 360.352661,420.160858 
	C361.600586,413.051819 361.372131,405.683594 361.913300,396.791382 
	C370.354889,411.645660 378.179230,425.413788 385.903015,439.838745 
	C385.182617,441.656921 384.562744,442.818268 383.697388,444.141907 
	C383.246094,444.846527 383.040253,445.388885 382.552673,446.117035 
	C379.618134,452.539307 376.965393,458.775818 374.312653,465.012329 
	C373.783295,466.725311 373.253937,468.438293 372.404175,471.188019 
	C365.526978,469.932404 358.529419,468.654785 351.225464,467.156616 
z"/>
<path fill="#F9F9FA" opacity="1.000000" stroke="none" 
	d="
M425.199707,498.468689 
	C409.998474,495.294983 396.127716,489.345917 384.412476,478.905701 
	C380.757355,475.648407 378.075073,472.033539 380.186462,466.067566 
	C382.975891,460.829803 385.606262,456.274689 388.488770,451.630493 
	C388.828613,451.386200 388.916260,451.230988 389.394165,451.046021 
	C391.710510,451.752228 394.185486,451.963348 395.472961,453.309845 
	C403.355255,461.553680 411.434326,469.685394 418.504883,478.602203 
	C423.093323,484.388794 426.079590,491.445831 429.783722,497.933655 
	C429.363312,498.254211 428.942871,498.574768 428.522461,498.895294 
	C427.414886,498.753082 426.307281,498.610870 425.199707,498.468689 
z"/>
<path fill="#091D3F" opacity="1.000000" stroke="none" 
	d="
M817.391968,504.001404 
	C823.968933,495.604492 831.604797,487.671112 837.776733,478.727448 
	C848.657349,462.960480 853.713806,444.877502 856.024536,426.002716 
	C858.452332,406.172333 857.311707,386.538635 852.564880,367.120300 
	C852.313293,366.091095 852.286194,365.006958 852.632874,363.897980 
	C874.837280,405.290283 880.756836,448.311432 865.223022,493.720184 
	C864.850830,492.605347 864.306824,491.114960 864.637329,489.853699 
	C869.268921,472.175446 873.281128,454.345551 871.846069,435.956909 
	C871.075928,426.088196 869.262573,416.219971 866.981628,406.573425 
	C864.816833,397.418152 861.428345,388.552246 858.577942,379.559113 
	C858.060486,379.655640 857.543030,379.752197 857.025574,379.848755 
	C857.429199,383.640015 857.908997,387.424988 858.223450,391.223633 
	C859.695312,409.002869 859.140015,426.478699 854.852783,444.081665 
	C851.514465,457.788574 846.628296,470.508240 839.028076,482.137207 
	C834.389282,489.234924 828.672546,495.653320 823.139038,502.119293 
	C822.074158,503.363647 819.610046,503.410583 817.391968,504.001404 
z"/>
<path fill="#1F1E27" opacity="1.000000" stroke="none" 
	d="
M425.151062,498.901428 
	C426.307281,498.610870 427.414886,498.753082 428.522461,498.895294 
	C428.942871,498.574768 429.363312,498.254211 429.783722,497.933655 
	C426.079590,491.445831 423.093323,484.388794 418.504883,478.602203 
	C411.434326,469.685394 403.355255,461.553680 395.472961,453.309845 
	C394.185486,451.963348 391.710510,451.752228 389.605743,450.762390 
	C392.145630,445.943329 390.653839,444.167389 383.942871,443.979614 
	C384.562744,442.818268 385.182617,441.656921 385.959900,440.195190 
	C389.217407,442.169281 392.305939,444.459717 395.423523,446.709869 
	C396.571808,447.538605 397.788818,448.272247 399.323120,449.066833 
	C401.608978,452.268616 403.045868,455.937164 405.574341,458.548981 
	C414.262909,467.523926 423.325958,476.259796 427.955444,488.127258 
	C430.203156,493.889069 430.947784,500.237274 432.240234,506.654846 
	C426.847931,507.114044 424.218292,504.831726 425.151062,498.901428 
z"/>
<path fill="#411629" opacity="1.000000" stroke="none" 
	d="
M161.017303,773.399048 
	C162.848419,773.510559 164.853027,773.715027 166.623093,774.469727 
	C170.804642,776.252502 174.935547,778.179810 178.968979,780.275635 
	C181.797119,781.745178 184.283417,783.924255 187.181061,785.197937 
	C193.824707,788.118286 200.638718,790.649231 207.345261,793.430725 
	C208.001282,793.702759 208.391617,794.615540 208.975830,795.584839 
	C202.429718,793.585876 195.634384,791.633972 189.239639,788.783386 
	C180.349686,784.820435 171.748245,780.207031 163.061554,775.796692 
	C162.261078,775.390259 161.736755,774.439880 161.017303,773.399048 
z"/>
<path fill="#1F1E27" opacity="1.000000" stroke="none" 
	d="
M388.236633,451.719574 
	C385.606262,456.274689 382.975891,460.829803 380.160583,465.685974 
	C379.242554,464.268372 378.509491,462.549713 377.631256,460.490753 
	C376.571808,462.191010 375.746552,463.515472 374.616974,464.926117 
	C376.965393,458.775818 379.618134,452.539307 382.798218,446.318359 
	C383.004852,448.009857 382.684143,449.685822 382.278534,451.805481 
	C384.658630,451.307709 386.669067,447.067261 388.236633,451.719574 
z"/>
<path fill="#411629" opacity="1.000000" stroke="none" 
	d="
M33.059067,610.348511 
	C34.259071,611.800415 35.740868,613.539978 36.541325,615.550720 
	C40.733677,626.081970 44.761673,636.678772 48.810951,647.266418 
	C49.037956,647.859985 48.945793,648.575623 48.993652,649.622803 
	C46.656918,645.751648 43.977161,641.642029 42.083084,637.197510 
	C39.257488,630.567017 36.931496,623.719849 34.512333,616.922363 
	C33.807926,614.943115 33.510498,612.818970 33.059067,610.348511 
z"/>
<path fill="#411629" opacity="1.000000" stroke="none" 
	d="
M49.031151,651.368774 
	C50.383976,651.908752 52.293007,652.559753 52.957870,653.851257 
	C57.110455,661.917786 60.985039,670.127441 64.935516,678.679565 
	C63.943199,678.502441 62.552731,678.178162 62.055866,677.330322 
	C57.674694,669.853943 53.418972,662.302856 49.233372,654.714783 
	C48.801922,653.932495 49.069149,652.764771 49.031151,651.368774 
z"/>
<path fill="#0B264D" opacity="1.000000" stroke="none" 
	d="
M919.065186,585.643311 
	C921.033508,581.708679 923.325989,577.709351 925.659912,573.734314 
	C928.761169,568.452393 931.894897,563.189514 935.292603,557.730896 
	C935.649414,558.192627 936.030945,559.029297 935.762268,559.463501 
	C930.355652,568.199951 924.874268,576.890137 919.065186,585.643311 
z"/>
<path fill="#0B264D" opacity="1.000000" stroke="none" 
	d="
M936.247559,555.966064 
	C938.150696,549.828064 940.412781,543.752136 942.674927,537.676208 
	C943.126953,537.819214 943.578979,537.962280 944.031006,538.105347 
	C942.615356,544.625671 941.199768,551.145935 939.576111,557.974487 
	C938.447571,557.531250 937.527100,556.779724 936.247559,555.966064 
z"/>
<path fill="#411629" opacity="1.000000" stroke="none" 
	d="
M64.993744,680.372864 
	C67.559921,683.088257 70.382439,685.996399 72.640121,689.291565 
	C75.947426,694.118530 78.850174,699.222656 81.992813,704.557800 
	C78.286964,700.069397 74.379829,695.328430 70.790047,690.358276 
	C68.606117,687.334534 66.911812,683.957153 64.993744,680.372864 
z"/>
<path fill="#411629" opacity="1.000000" stroke="none" 
	d="
M97.087021,722.294067 
	C102.383369,727.041870 107.661270,732.151245 112.996979,737.598511 
	C107.726044,732.842834 102.397316,727.749268 97.087021,722.294067 
z"/>
<path fill="#091D3F" opacity="1.000000" stroke="none" 
	d="
M856.558716,513.003662 
	C854.169373,517.879578 851.405701,522.769043 848.361694,527.833374 
	C849.667053,523.613098 851.120850,519.161865 852.944702,514.867859 
	C853.331726,513.956604 855.069214,513.619019 856.558716,513.003662 
z"/>
<path fill="#091D3F" opacity="1.000000" stroke="none" 
	d="
M863.566528,497.036224 
	C862.088135,501.494659 860.264282,506.013092 858.169067,510.747131 
	C855.780273,504.846405 860.451050,501.336182 863.566528,497.036224 
z"/>
<path fill="#411629" opacity="1.000000" stroke="none" 
	d="
M146.062714,764.349060 
	C150.620987,766.762878 155.254990,769.509094 159.979370,772.578247 
	C155.425980,770.161194 150.782211,767.421326 146.062714,764.349060 
z"/>
<path fill="#411629" opacity="1.000000" stroke="none" 
	d="
M211.034256,796.431885 
	C214.909805,797.455811 218.898483,798.812317 223.001862,800.486572 
	C219.126831,799.457703 215.137115,798.111084 211.034256,796.431885 
z"/>
<path fill="#411629" opacity="1.000000" stroke="none" 
	d="
M131.024384,753.385864 
	C133.945877,755.123291 136.931519,757.197754 139.981628,759.607239 
	C137.060226,757.869141 134.074371,755.796021 131.024384,753.385864 
z"/>
<path fill="#411629" opacity="1.000000" stroke="none" 
	d="
M89.055679,713.328003 
	C91.685226,715.720886 94.307526,718.474976 96.997986,721.571411 
	C94.393578,719.172241 91.721001,716.430725 89.055679,713.328003 
z"/>
<path fill="#091D3F" opacity="1.000000" stroke="none" 
	d="
M810.399048,508.993530 
	C812.103149,507.348938 814.209412,505.715088 816.654419,504.036285 
	C817.009888,508.232452 814.353149,509.171265 810.399048,508.993530 
z"/>
<path fill="#411629" opacity="1.000000" stroke="none" 
	d="
M82.962006,705.424988 
	C84.919289,707.167480 86.904137,709.265625 88.907112,711.715332 
	C86.946693,709.971497 84.968132,707.876038 82.962006,705.424988 
z"/>
<path fill="#411629" opacity="1.000000" stroke="none" 
	d="
M121.999878,745.426514 
	C123.937988,746.811584 125.940796,748.527893 128.007065,750.575439 
	C126.068550,749.190369 124.066559,747.474121 121.999878,745.426514 
z"/>
<path fill="#091D3F" opacity="1.000000" stroke="none" 
	d="
M803.025635,513.802307 
	C804.854492,512.187378 807.078186,510.635223 809.641907,509.037415 
	C807.794739,510.616241 805.607605,512.240662 803.025635,513.802307 
z"/>
<path fill="#411629" opacity="1.000000" stroke="none" 
	d="
M113.100861,738.291443 
	C115.015533,739.410889 116.954155,740.876587 118.924629,742.690491 
	C117.012589,741.571655 115.068695,740.104675 113.100861,738.291443 
z"/>
<path fill="#411629" opacity="1.000000" stroke="none" 
	d="
M141.001343,760.420227 
	C142.248306,760.827759 143.565414,761.575989 144.924011,762.679810 
	C143.667511,762.277222 142.369507,761.519104 141.001343,760.420227 
z"/>
<path fill="#0B264D" opacity="1.000000" stroke="none" 
	d="
M916.314331,588.941040 
	C916.657715,587.972595 917.349609,586.971436 918.329468,585.865601 
	C917.965942,586.810120 917.314453,587.859192 916.314331,588.941040 
z"/>
<path fill="#0B264D" opacity="1.000000" stroke="none" 
	d="
M914.165894,591.794006 
	C914.341553,590.936401 914.870605,590.080078 915.686035,589.097168 
	C915.488098,589.912170 915.003723,590.853760 914.165894,591.794006 
z"/>
<path fill="#411629" opacity="1.000000" stroke="none" 
	d="
M121.026245,744.372375 
	C121.223991,744.219299 121.495293,744.364807 121.815041,744.834106 
	C121.628586,744.946533 121.374023,744.784241 121.026245,744.372375 
z"/>
<path fill="#0B264D" opacity="1.000000" stroke="none" 
	d="
M913.155640,592.851746 
	C913.087646,592.676331 913.241699,592.382080 913.621582,591.976685 
	C913.690918,592.154663 913.534363,592.443787 913.155640,592.851746 
z"/>
<path fill="#6A1B28" opacity="1.000000" stroke="none" 
	d="
M445.094543,400.234253 
	C444.983398,400.111176 445.395386,399.921783 445.618896,399.889343 
	C445.809479,400.274048 445.597229,400.440857 445.094543,400.234253 
z"/>
<path fill="#12132B" opacity="1.000000" stroke="none" 
	d="
M848.887817,232.933838 
	C857.486084,232.992889 861.009216,239.522354 864.424927,245.352280 
	C872.826233,259.691376 873.705139,275.392426 870.541138,291.297760 
	C865.535339,316.461792 852.487366,337.507141 835.930115,356.619476 
	C835.324890,357.318024 834.470215,357.800385 832.908508,359.033600 
	C839.045593,338.768890 831.595825,323.007294 819.689636,308.530701 
	C807.555603,293.777008 791.718262,286.690155 772.465454,286.807251 
	C772.483459,286.389862 772.501404,285.972504 772.519409,285.555145 
	C774.591736,284.769806 776.646423,283.933655 778.739075,283.206787 
	C806.114502,273.698761 829.402649,258.427185 846.893677,234.956436 
	C847.386902,234.294632 848.036804,233.749588 848.887817,232.933838 
z"/>
<path fill="#12142C" opacity="1.000000" stroke="none" 
	d="
M760.465088,784.590942 
	C753.880127,777.415161 753.362549,768.210571 759.081238,760.669373 
	C767.354431,749.759827 778.451294,745.238647 791.953979,747.132874 
	C802.466919,748.607727 809.061707,761.067505 804.774902,770.958374 
	C797.424805,787.917297 772.868042,794.047729 760.465088,784.590942 
z"/>
<path fill="#12142C" opacity="1.000000" stroke="none" 
	d="
M995.114502,547.278931 
	C995.477051,555.918396 994.080872,563.558838 989.192322,570.460388 
	C984.225830,577.472046 977.666687,580.776062 969.372192,578.768555 
	C961.285950,576.811279 957.471497,570.208252 956.313721,562.639099 
	C954.883484,553.288635 955.624023,544.054382 961.466125,535.868530 
	C965.999695,529.516235 971.765503,525.801636 979.711975,527.090027 
	C987.273376,528.315918 991.360596,533.647705 993.677368,540.512817 
	C994.363098,542.544800 994.641113,544.714417 995.114502,547.278931 
z"/>
<path fill="#12142C" opacity="1.000000" stroke="none" 
	d="
M924.916016,655.149414 
	C925.839172,643.355896 931.388428,634.858826 941.215637,629.427002 
	C951.668762,623.649109 962.131348,628.349304 965.427429,639.900452 
	C968.911499,652.110474 962.740234,667.596008 951.775330,674.157898 
	C938.803101,681.920959 925.184204,674.291504 924.915710,659.107910 
	C924.895142,657.942688 924.911499,656.776733 924.916016,655.149414 
z"/>
<path fill="#11142C" opacity="1.000000" stroke="none" 
	d="
M888.410767,722.330200 
	C882.337158,730.118042 875.099915,735.294617 865.328064,736.182861 
	C851.894592,737.403931 843.858154,728.145996 846.959229,715.034851 
	C849.578369,703.961487 862.122009,692.509460 873.209839,691.068665 
	C887.297852,689.237976 896.436462,700.022827 892.424805,713.963745 
	C891.612793,716.785461 889.914795,719.352234 888.410767,722.330200 
z"/>
<path fill="#12142C" opacity="1.000000" stroke="none" 
	d="
M969.868896,454.169495 
	C957.125305,455.332336 945.279114,442.323730 944.015320,428.257416 
	C943.720215,424.973297 943.669067,421.529327 944.318665,418.323669 
	C946.401428,408.047058 956.519043,402.799042 966.612976,406.458710 
	C978.531738,410.779968 988.487366,430.148102 985.041199,442.309662 
	C982.937195,449.734680 978.264832,453.495880 969.868896,454.169495 
z"/>
<path fill="#13162F" opacity="1.000000" stroke="none" 
	d="
M608.834412,390.761688 
	C615.162292,375.859131 622.705261,361.620117 634.010559,349.876923 
	C640.552734,343.081390 648.915771,340.246216 658.570740,341.806854 
	C668.860657,343.470062 679.197205,344.844482 690.314331,346.461487 
	C689.434753,348.136444 688.908569,349.426361 688.141235,350.551880 
	C683.840637,356.860199 679.033447,362.871429 675.245422,369.469849 
	C669.183655,380.029022 660.024231,384.048798 648.770447,381.676086 
	C634.890076,378.749634 624.020752,383.357758 614.196655,392.406738 
	C613.709961,392.855042 613.145142,393.218506 611.999207,393.823120 
	C610.532593,392.937073 609.683533,391.849396 608.834412,390.761688 
M674.979004,357.009308 
	C674.693298,356.089050 674.650024,354.567017 674.085205,354.339386 
	C666.462341,351.267822 658.634460,348.854187 650.287170,350.095642 
	C646.354797,350.680481 643.659241,353.106171 643.075012,357.301117 
	C642.477905,361.588684 641.840149,365.876221 641.464966,370.185120 
	C641.370544,371.270264 641.871033,372.923096 642.677429,373.487488 
	C648.134766,377.307251 658.282410,376.927795 663.159424,372.052582 
	C667.463928,367.749634 670.854858,362.532806 674.979004,357.009308 
z"/>
<path fill="#11142C" opacity="1.000000" stroke="none" 
	d="
M889.322144,487.456787 
	C892.656067,483.783966 895.306641,479.631836 899.076599,477.255798 
	C909.994080,470.375122 921.771179,477.450745 922.676758,491.369812 
	C923.319397,501.248627 919.604126,509.710602 911.782043,515.871460 
	C906.566162,519.979553 900.212524,520.573730 894.298828,517.906921 
	C888.543701,515.311646 885.570740,509.961395 886.039856,503.680756 
	C886.439087,498.335815 888.066284,493.082581 889.322144,487.456787 
z"/>
<path fill="#12142D" opacity="1.000000" stroke="none" 
	d="
M897.263428,332.973022 
	C912.242554,330.557465 927.919067,342.956879 927.894287,356.821533 
	C927.881226,364.108765 922.326294,370.225677 915.075806,370.936707 
	C902.713257,372.149017 889.487549,362.204163 887.255676,350.017731 
	C885.815369,342.153534 889.259644,336.067688 897.263428,332.973022 
z"/>
<path fill="#12142D" opacity="1.000000" stroke="none" 
	d="
M842.649292,585.000977 
	C837.680420,571.424683 847.573303,558.931580 856.346741,554.653870 
	C866.336548,549.783020 878.891113,553.169800 878.994629,568.077942 
	C879.065430,578.274231 872.137634,588.367126 862.824097,591.831238 
	C854.748657,594.834900 848.096252,592.669678 842.649292,585.000977 
z"/>
<path fill="#11152F" opacity="1.000000" stroke="none" 
	d="
M669.355225,404.682617 
	C667.102295,403.601807 665.202515,402.665466 662.401733,401.285065 
	C664.347351,400.522949 665.307556,400.042236 666.323242,399.765167 
	C676.882446,396.884613 685.514343,390.924133 693.427734,383.526367 
	C697.600403,379.625519 701.854309,375.369507 708.474731,375.790405 
	C714.218628,376.155609 717.653992,379.803864 716.918091,385.672455 
	C715.626770,395.969330 709.132263,402.342865 700.125183,406.302643 
	C689.839783,410.824371 679.651794,409.384155 669.355225,404.682617 
z"/>
<path fill="#11152E" opacity="1.000000" stroke="none" 
	d="
M795.025024,645.419067 
	C787.903076,641.665527 785.514099,634.999878 788.355225,625.990295 
	C790.487610,619.228271 794.819275,614.038940 801.585266,611.326660 
	C810.892334,607.595642 819.445557,612.921387 819.877258,622.949158 
	C820.397888,635.040710 809.147339,649.073608 795.025024,645.419067 
z"/>
<path fill="#10152F" opacity="1.000000" stroke="none" 
	d="
M665.289368,425.815369 
	C666.020935,426.141815 666.752502,426.468262 667.798401,427.319458 
	C669.733948,428.561737 671.355103,429.279297 672.976318,429.996887 
	C673.204590,430.200500 673.448242,430.383606 673.948608,431.050446 
	C675.266235,431.939331 676.342468,432.324005 677.418762,432.708679 
	C678.730225,433.119812 680.041687,433.530914 681.737183,434.457947 
	C683.552734,435.551544 684.984314,436.129211 686.415833,436.706879 
	C686.773804,436.752136 687.131836,436.797363 687.897339,437.198425 
	C689.920288,438.223602 691.535828,438.892944 693.151306,439.562286 
	C693.151306,439.562286 693.603882,439.699066 693.970581,440.033203 
	C694.673462,440.507416 695.009705,440.647430 695.345886,440.787476 
	C697.813660,442.382385 701.198853,443.446198 702.509888,445.710754 
	C704.041992,448.357361 704.913513,452.501831 703.880188,455.137115 
	C703.157043,456.981232 698.240234,458.892548 696.095703,458.155914 
	C688.835632,455.662140 681.371033,452.886475 675.097168,448.592834 
	C664.127136,441.085236 654.610413,431.782227 647.900879,419.302002 
	C647.169067,417.812897 646.479980,417.008392 645.790894,416.203888 
	C645.790894,416.203888 645.781677,416.143311 645.844727,415.785156 
	C646.902161,414.628510 647.896545,413.829987 648.890930,413.031494 
	C648.890930,413.031494 648.960693,413.050720 649.022644,413.415344 
	C650.109375,414.487579 651.134094,415.195190 652.158875,415.902832 
	C652.431702,416.014618 652.662231,416.184052 653.099976,416.856140 
	C653.863770,417.544128 654.377991,417.787079 654.892151,418.030029 
	C654.892151,418.030029 655.096375,418.311035 655.156006,418.849121 
	C656.425659,419.940216 657.635559,420.493286 658.845459,421.046326 
	C659.713135,421.662811 660.580811,422.279236 661.783569,423.378693 
	C662.769958,424.218597 663.421265,424.575470 664.072571,424.932373 
	C664.072571,424.932373 664.057373,424.996368 664.192993,425.191986 
	C664.648804,425.530212 664.969116,425.672791 665.289368,425.815369 
z"/>
<path fill="#10152D" opacity="1.000000" stroke="none" 
	d="
M792.636841,397.382660 
	C787.168701,391.129150 787.133301,383.971558 788.309143,376.840851 
	C789.314575,370.743774 793.329102,366.603333 799.447083,365.540680 
	C805.167480,364.547028 809.260193,367.942261 812.219177,372.427032 
	C816.840576,379.431091 817.604736,387.049988 814.059387,394.659760 
	C809.876709,403.637573 799.838867,404.927551 792.636841,397.382660 
z"/>
<path fill="#11142E" opacity="1.000000" stroke="none" 
	d="
M817.857178,462.372742 
	C817.101562,464.671600 816.577942,466.620544 815.718140,468.407715 
	C813.383301,473.260468 809.145325,475.662506 804.039612,475.570374 
	C798.266479,475.466217 794.578369,471.640564 792.562073,466.544067 
	C790.137085,460.414398 790.308228,454.143677 793.090881,448.102478 
	C795.412109,443.063110 799.030212,439.648346 804.988098,439.831970 
	C811.171448,440.022552 814.931396,444.019775 816.694458,449.185852 
	C818.038147,453.122894 817.587952,457.672150 817.857178,462.372742 
z"/>
<path fill="#11152E" opacity="1.000000" stroke="none" 
	d="
M762.393250,420.074310 
	C763.671204,426.508820 762.123169,430.114471 756.495300,432.411469 
	C746.688660,436.414062 736.958618,435.708069 727.838379,430.308777 
	C721.711426,426.681488 721.458984,421.165985 726.799133,416.527161 
	C736.404419,408.183289 754.369019,409.811249 762.393250,420.074310 
z"/>
<path fill="#11152F" opacity="1.000000" stroke="none" 
	d="
M743.927551,327.786255 
	C739.555115,333.313446 734.436646,336.905090 727.725098,338.326752 
	C723.133667,339.299286 718.791443,338.974609 715.711182,335.596527 
	C712.396057,331.960846 713.331238,327.196930 715.551331,323.395477 
	C719.814087,316.096283 725.856018,310.636810 734.751465,309.929138 
	C744.187561,309.178497 749.028687,316.084656 745.495728,324.817017 
	C745.123718,325.736267 744.574646,326.583801 743.927551,327.786255 
z"/>
<path fill="#11152F" opacity="1.000000" stroke="none" 
	d="
M674.731018,303.698456 
	C672.044617,303.390350 669.729431,303.200500 667.513184,302.627869 
	C663.313538,301.542816 659.742920,299.677551 658.962891,294.748322 
	C658.153625,289.634247 661.165466,286.474121 664.827515,284.075714 
	C670.355347,280.455292 676.608337,279.739716 682.997192,281.306824 
	C687.576355,282.430023 691.050232,287.106537 690.992493,291.555176 
	C690.927368,296.569427 686.525635,301.342468 680.549805,302.756500 
	C678.778076,303.175720 676.949463,303.354767 674.731018,303.698456 
z"/>
<path fill="#11152F" opacity="1.000000" stroke="none" 
	d="
M738.743469,261.947571 
	C748.282166,264.620850 748.263916,274.278320 741.159668,279.218567 
	C734.985718,283.511871 728.074890,284.451843 721.335938,281.322296 
	C718.723694,280.109161 715.691223,276.697998 715.536377,274.126404 
	C715.364746,271.275818 717.546509,267.254608 719.973572,265.487152 
	C725.288147,261.616913 731.581421,259.803711 738.743469,261.947571 
z"/>
<path fill="#11152F" opacity="1.000000" stroke="none" 
	d="
M638.064453,317.813385 
	C636.445801,328.004028 626.801392,333.586212 617.305542,332.672028 
	C611.905762,332.152222 609.597900,327.694183 611.315613,321.916473 
	C613.207703,315.552185 622.437500,308.797333 629.166992,308.851898 
	C635.634033,308.904358 637.648010,310.836334 638.064453,317.813385 
z"/>
<path fill="#0F162F" opacity="1.000000" stroke="none" 
	d="
M745.851379,468.829773 
	C749.708008,471.405487 753.727966,473.380707 756.517212,476.467926 
	C761.414124,481.887878 758.639160,489.004395 751.483337,489.609406 
	C744.696655,490.183197 738.621704,487.783386 734.310547,482.308289 
	C731.853577,479.187958 730.836731,475.440857 732.885742,471.562683 
	C734.892700,467.764252 738.521851,467.931702 742.054199,468.087585 
	C743.196899,468.138031 744.325500,468.506836 745.851379,468.829773 
z"/>
<path fill="#0F162F" opacity="1.000000" stroke="none" 
	d="
M749.080200,376.195190 
	C747.214966,377.316406 745.697754,378.378601 744.019897,379.022491 
	C740.646301,380.317200 736.351746,381.384216 734.623169,377.723816 
	C733.234192,374.782410 733.361389,370.305145 734.543823,367.158875 
	C736.379456,362.274597 740.783691,359.446136 746.192627,359.023346 
	C753.183899,358.476837 756.810669,363.682495 753.767334,370.017731 
	C752.720154,372.197510 750.849792,373.981903 749.080200,376.195190 
z"/>
<path fill="#0B264D" opacity="1.000000" stroke="none" 
	d="
M608.527222,390.921997 
	C609.683533,391.849396 610.532593,392.937073 611.777405,394.060974 
	C609.552185,397.584991 606.931335,401.072784 604.310486,404.560608 
	C603.809937,404.341278 603.309387,404.121979 602.808838,403.902649 
	C604.612610,399.629211 606.416321,395.355774 608.527222,390.921997 
z"/>
<path fill="#0B264D" opacity="1.000000" stroke="none" 
	d="
M648.778015,412.722076 
	C647.896545,413.829987 646.902161,414.628510 645.816895,415.797852 
	C643.491516,412.276459 641.257080,408.384247 639.022705,404.492004 
	C639.445496,404.213562 639.868347,403.935120 640.291199,403.656677 
	C643.082458,406.575348 645.873779,409.493988 648.778015,412.722076 
z"/>
<path fill="#0B264D" opacity="1.000000" stroke="none" 
	d="
M693.002197,439.280792 
	C691.535828,438.892944 689.920288,438.223602 688.159668,437.266602 
	C689.627380,437.652435 691.240234,438.325867 693.002197,439.280792 
z"/>
<path fill="#0B264D" opacity="1.000000" stroke="none" 
	d="
M672.827148,429.703247 
	C671.355103,429.279297 669.733948,428.561737 668.041809,427.501892 
	C669.539917,427.909576 671.108887,428.659607 672.827148,429.703247 
z"/>
<path fill="#0B264D" opacity="1.000000" stroke="none" 
	d="
M686.242249,436.423096 
	C684.984314,436.129211 683.552734,435.551544 682.031494,434.641968 
	C683.317444,434.919861 684.693054,435.529602 686.242249,436.423096 
z"/>
<path fill="#0B264D" opacity="1.000000" stroke="none" 
	d="
M652.054077,415.593994 
	C651.134094,415.195190 650.109375,414.487579 649.028076,413.451050 
	C649.964111,413.843170 650.956665,414.564178 652.054077,415.593994 
z"/>
<path fill="#0B264D" opacity="1.000000" stroke="none" 
	d="
M677.236938,432.425659 
	C676.342468,432.324005 675.266235,431.939331 674.139893,431.176147 
	C675.078308,431.245941 676.066711,431.694275 677.236938,432.425659 
z"/>
<path fill="#0B264D" opacity="1.000000" stroke="none" 
	d="
M658.692017,420.772247 
	C657.635559,420.493286 656.425659,419.940216 655.218628,419.011078 
	C656.327271,419.256042 657.432922,419.877106 658.692017,420.772247 
z"/>
<path fill="#0B264D" opacity="1.000000" stroke="none" 
	d="
M645.837036,416.524109 
	C646.479980,417.008392 647.169067,417.812897 647.824036,418.968140 
	C647.154236,418.494080 646.518677,417.669189 645.837036,416.524109 
z"/>
<path fill="#0B264D" opacity="1.000000" stroke="none" 
	d="
M663.975708,424.646667 
	C663.421265,424.575470 662.769958,424.218597 662.031189,423.582397 
	C662.588745,423.655731 663.233826,424.008331 663.975708,424.646667 
z"/>
<path fill="#0B264D" opacity="1.000000" stroke="none" 
	d="
M654.756775,417.777191 
	C654.377991,417.787079 653.863770,417.544128 653.225220,417.032410 
	C653.607666,417.017181 654.114563,417.270752 654.756775,417.777191 
z"/>
<path fill="#0B264D" opacity="1.000000" stroke="none" 
	d="
M665.134521,425.600769 
	C664.969116,425.672791 664.648804,425.530212 664.186157,425.160217 
	C664.355713,425.083954 664.667725,425.235077 665.134521,425.600769 
z"/>
<path fill="#0B264D" opacity="1.000000" stroke="none" 
	d="
M695.178467,440.570557 
	C695.009705,440.647430 694.673462,440.507416 694.184387,440.134094 
	C694.357971,440.051727 694.684448,440.202667 695.178467,440.570557 
z"/>
<path fill="#F7EDEE" opacity="1.000000" stroke="none" 
	d="
M281.429993,357.625305 
	C275.317749,353.241119 269.446808,349.121521 263.560089,344.990814 
	C263.132080,345.593140 263.305817,345.162018 263.450562,345.171509 
	C274.132141,345.873718 282.766144,342.294281 291.013123,335.104614 
	C301.644348,325.836304 316.507324,329.016235 323.768005,340.683167 
	C330.292145,351.166595 326.238434,365.176331 315.009491,370.952698 
	C305.413879,375.888885 293.874268,373.466003 287.104156,365.044067 
	C285.228790,362.711090 283.478790,360.277374 281.429993,357.625305 
M319.638733,356.572876 
	C321.079620,350.435028 320.728699,344.648193 315.855804,340.015228 
	C310.743988,335.155151 302.851959,334.188965 296.980499,337.499542 
	C290.693665,341.044373 287.510590,348.091095 288.948608,355.280914 
	C290.161530,361.345245 295.571167,366.126831 302.213715,367.005981 
	C310.236938,368.067902 315.614746,365.013062 319.638733,356.572876 
z"/>
<path fill="#A9404E" opacity="1.000000" stroke="none" 
	d="
M228.003342,370.005798 
	C228.330017,369.790710 228.650787,369.567108 228.971558,369.343536 
	C229.042252,369.460602 229.112930,369.577637 229.183594,369.694702 
	C228.930817,369.799927 228.678055,369.905121 228.203461,369.995819 
	C227.981644,369.981293 227.997437,369.997284 228.003342,370.005798 
z"/>
<path fill="#141228" opacity="1.000000" stroke="none" 
	d="
M388.488770,451.630493 
	C386.669067,447.067261 384.658630,451.307709 382.278534,451.805481 
	C382.684143,449.685822 383.004852,448.009857 383.079987,446.132599 
	C383.040253,445.388885 383.246094,444.846527 383.697388,444.141907 
	C390.653839,444.167389 392.145630,445.943329 389.215515,450.792114 
	C388.916260,451.230988 388.828613,451.386200 388.488770,451.630493 
z"/>
<path fill="#F8F7F9" opacity="1.000000" stroke="none" 
	d="
M674.814087,357.364380 
	C670.854858,362.532806 667.463928,367.749634 663.159424,372.052582 
	C658.282410,376.927795 648.134766,377.307251 642.677429,373.487488 
	C641.871033,372.923096 641.370544,371.270264 641.464966,370.185120 
	C641.840149,365.876221 642.477905,361.588684 643.075012,357.301117 
	C643.659241,353.106171 646.354797,350.680481 650.287170,350.095642 
	C658.634460,348.854187 666.462341,351.267822 674.085205,354.339386 
	C674.650024,354.567017 674.693298,356.089050 674.814087,357.364380 
z"/>
<path fill="#681D2A" opacity="1.000000" stroke="none" 
	d="
M319.458893,356.942566 
	C315.614746,365.013062 310.236938,368.067902 302.213715,367.005981 
	C295.571167,366.126831 290.161530,361.345245 288.948608,355.280914 
	C287.510590,348.091095 290.693665,341.044373 296.980499,337.499542 
	C302.851959,334.188965 310.743988,335.155151 315.855804,340.015228 
	C320.728699,344.648193 321.079620,350.435028 319.458893,356.942566 
z"/>
</svg>